:SAMPLES-PER-SECOND 30
:FULLY-SPECIFIED
:DEGREES
259
root  -74.6481 31.9172 -41.2662 10.2458 61.8504 -5.27086
RightUpLeg  -44.1836 -16.7439 -5.78177
RightLeg  42.5116 -0.0626784 -0.0778824
RightFoot  -6.82252 -0.0166874 0.0976082
RightToes  -35.5736 -0.184123 -0.288777
Spine  7.52304 -0.604608 0.525984
Spine1  14.1242 -1.34706 0.508934
HEad  -6.34989 10.3735 6.82726
LeftShoulder1  0 -2.42657e-020 -4.95415e-022
LeftArm  -1.93986 4.60276 -80.1983
LeftForeArm  49.7397 -56.6422 -15.5627
LeftHand  -0.430777 -6.49038 7.22416
RightShoulder  0 2.42657e-020 1.07489e-018
RightArm  -22.9168 -10.1858 78.1494
RightForeArm  48.9049 49.0955 11.746
RightHand  -4.01003 18.6806 -23.6694
LeftUpLeg  -18.7446 5.12503 14.5212
LeftLeg  38.2473 -5.48588 -3.77336
LeftFoot  -9.30534 0.0680046 0.835584
LeftToes  -44.0365 9.37529e-007 1.1992e-007
260
root  -74.5094 31.6027 -40.4202 10.8239 60.3135 -4.38731
RightUpLeg  -45.5086 -18.1542 -6.7744
RightLeg  38.3365 -2.9009 -2.02273
RightFoot  -6.55731 0.00701182 0.500003
RightToes  -32.5143 -0.161612 -0.269055
Spine  7.4963 -0.646589 0.588325
Spine1  14.0436 -1.43069 0.481828
HEad  -5.65914 11.7805 4.98651
LeftShoulder1  0 -2.42657e-020 -4.95415e-022
LeftArm  -2.02933 3.35199 -80.5758
LeftForeArm  49.3567 -54.6143 -14.3908
LeftHand  -0.431164 -6.50288 7.21635
RightShoulder  0 2.42657e-020 1.07489e-018
RightArm  -22.6825 -8.67352 76.1398
RightForeArm  49.2449 50.315 12.2752
RightHand  -4.03534 18.5707 -23.9582
LeftUpLeg  -16.5842 6.44389 15.261
LeftLeg  37.5543 -5.4416 -3.64728
LeftFoot  -9.88886 0.0741059 0.856577
LeftToes  -45.6552 9.37529e-007 1.1992e-007
261
root  -74.3848 31.3458 -39.3836 11.7806 58.9383 -3.50214
RightUpLeg  -47.8622 -20.3999 -6.13557
RightLeg  36.5952 -5.48317 -3.55442
RightFoot  -5.10931 0.0130898 0.671024
RightToes  -29.1696 -0.138244 -0.246153
Spine  7.26617 -0.651616 0.675272
Spine1  13.5668 -1.42968 0.507767
HEad  -4.81029 13.0395 3.48338
LeftShoulder1  0 -2.42657e-020 -4.95415e-022
LeftArm  -2.32588 2.32017 -80.9515
LeftForeArm  48.8449 -52.663 -13.3743
LeftHand  -0.41227 -6.44184 6.95359
RightShoulder  0 2.42657e-020 1.07489e-018
RightArm  -22.4732 -7.16501 74.0058
RightForeArm  49.7555 51.6924 12.9079
RightHand  -4.05605 18.6213 -24.0138
LeftUpLeg  -13.7866 7.46154 16.1877
LeftLeg  35.0493 -5.31868 -3.23876
LeftFoot  -9.82641 0.0669806 0.779163
LeftToes  -46.9838 9.37529e-007 1.1992e-007
262
root  -74.1994 31.1963 -38.0854 12.3723 58.4223 -2.75159
RightUpLeg  -49.8227 -23.3374 -4.16809
RightLeg  37.485 -5.86943 -3.9331
RightFoot  -5.18467 0.0155643 0.721412
RightToes  -26.7404 -0.122131 -0.228685
Spine  7.10307 -0.826297 0.889748
Spine1  13.2193 -1.74194 0.706386
HEad  -4.37131 14.3379 2.02527
LeftShoulder1  0 -2.42657e-020 -4.95415e-022
LeftArm  -3.47506 1.67455 -81.4743
LeftForeArm  48.3481 -50.4504 -12.3312
LeftHand  -0.388772 -6.63844 6.33244
RightShoulder  0 2.42657e-020 1.07489e-018
RightArm  -21.6509 -5.07924 71.7662
RightForeArm  48.5801 52.3639 13.2344
RightHand  -3.9377 18.4106 -23.5903
LeftUpLeg  -10.2347 7.81929 17.5358
LeftLeg  31.2407 -5.30107 -2.7643
LeftFoot  -7.94704 0.0370043 0.532712
LeftToes  -49.588 9.37529e-007 1.1992e-007
263
root  -74.061 31.1292 -36.4568 13.1585 58.0113 -1.69275
RightUpLeg  -50.8978 -24.9303 -1.97199
RightLeg  40.5977 -4.6336 -3.49513
RightFoot  -6.7062 0.0226487 0.764192
RightToes  -26.3542 -0.119638 -0.225845
Spine  6.80875 -0.969729 1.03432
Spine1  12.6561 -1.94477 0.772802
HEad  -4.05847 15.661 0.289807
LeftShoulder1  0 -2.42657e-020 -4.95415e-022
LeftArm  -5.80132 1.94731 -81.7987
LeftForeArm  47.5407 -48.3316 -11.4245
LeftHand  -0.368799 -6.47338 6.15115
RightShoulder  0 2.42657e-020 1.07489e-018
RightArm  -20.4628 -2.59866 70.3472
RightForeArm  47.147 52.2892 13.2007
RightHand  -3.79813 18.3605 -22.8261
LeftUpLeg  -6.66672 9.49031 19.4773
LeftLeg  27.5812 -6.79781 -3.00582
LeftFoot  -3.45849 0.00479639 0.158863
LeftToes  -54.4483 9.37529e-007 1.1992e-007
264
root  -73.8722 31.1424 -34.5464 13.7731 58.5852 -0.770554
RightUpLeg  -49.8751 -27.4793 0.735694
RightLeg  42.3834 -2.46705 -2.00178
RightFoot  -7.68316 0.00934126 0.516708
RightToes  -25.9917 -0.117316 -0.223165
Spine  6.43199 -1.21662 1.17004
Spine1  11.945 -2.33492 0.817245
HEad  -3.7829 16.8621 -1.58316
LeftShoulder1  0 -2.42657e-020 -4.95415e-022
LeftArm  -8.02856 3.27671 -81.6497
LeftForeArm  45.8218 -47.1994 -10.9741
LeftHand  -0.372675 -6.78725 5.91445
RightShoulder  0 2.42657e-020 1.07489e-018
RightArm  -18.7293 -0.712634 69.9853
RightForeArm  47.4261 52.1126 13.1143
RightHand  -3.90971 18.1649 -23.7428
LeftUpLeg  -4.0204 11.0107 22.0632
LeftLeg  24.9511 -8.93479 -3.46271
LeftFoot  3.40668 0.0254437 -0.855599
LeftToes  -61.5062 9.37529e-007 1.1992e-007
265
root  -73.6545 31.1656 -32.58 15.2163 59.3871 1.46425
RightUpLeg  -49.1206 -29.9354 1.43065
RightLeg  45.3075 -1.90128 -1.72193
RightFoot  -3.85528 -0.00353539 0.272554
RightToes  -32.9588 -0.164817 -0.271995
Spine  6.0907 -1.35473 1.05205
Spine1  11.2718 -2.5278 0.498109
HEad  -3.45294 17.8493 -3.67806
LeftShoulder1  0 -2.42657e-020 -4.95415e-022
LeftArm  -10.9586 5.24485 -81.4134
LeftForeArm  43.637 -47.2201 -10.9859
LeftHand  -0.323359 -6.20292 5.59875
RightShoulder  0 2.42657e-020 1.07489e-018
RightArm  -16.384 0.356089 70.457
RightForeArm  48.0711 53.2064 13.6567
RightHand  -4.13331 17.9273 -25.4109
LeftUpLeg  -2.70151 10.6895 23.1967
LeftLeg  24.3026 -7.25032 -2.7218
LeftFoot  11.1893 0.172777 -1.76368
LeftToes  -63.7839 9.37529e-007 1.1992e-007
266
root  -73.3937 31.1993 -30.5862 14.0254 59.5179 1.55705
RightUpLeg  -47.2537 -32.99 3.47012
RightLeg  47.6283 0.41177 0.357355
RightFoot  -4.83128 -0.0127168 0.0761133
RightToes  -30.8471 -0.149797 -0.25781
Spine  6.23531 -0.855016 1.15879
Spine1  11.5285 -1.4686 0.632958
HEad  -3.75424 18.2554 -5.19631
LeftShoulder1  0 -2.42657e-020 -4.95415e-022
LeftArm  -14.8582 7.4549 -81.9989
LeftForeArm  40.7177 -49.7806 -12.048
LeftHand  -0.227801 -5.80171 4.12822
RightShoulder  0 2.42657e-020 1.07489e-018
RightArm  -14.098 1.46197 70.4861
RightForeArm  47.9934 55.2286 14.7435
RightHand  -4.13146 18.1668 -25.0655
LeftUpLeg  -2.16709 10.3888 23.9682
LeftLeg  27.2868 0.0945755 0.0379998
LeftFoot  15.2323 0.0258975 -0.193685
LeftToes  -44.7538 9.37529e-007 1.1992e-007
267
root  -73.1943 31.2343 -28.6259 13.5021 58.6101 2.14423
RightUpLeg  -44.375 -32.557 4.11263
RightLeg  48.919 0.601695 0.563517
RightFoot  -8.66521 -0.0264021 0.029068
RightToes  -27.7195 -0.128537 -0.235808
Spine  6.34854 0.147714 1.07643
Spine1  11.7569 0.615112 0.521194
HEad  -4.05498 18.3446 -6.17779
LeftShoulder1  0 -2.42657e-020 -4.95415e-022
LeftArm  -18.7228 9.75113 -83.1003
LeftForeArm  39.5766 -53.9715 -14.0612
LeftHand  -0.22211 -5.27602 4.45374
RightShoulder  0 2.42657e-020 1.07489e-018
RightArm  -11.1363 2.32673 70.1463
RightForeArm  48.4913 58.5524 16.8088
RightHand  -4.1376 18.294 -24.9277
LeftUpLeg  -4.02367 10.9015 22.379
LeftLeg  33.8705 5.67889 3.29038
LeftFoot  11.45 -0.113729 1.13436
LeftToes  -24.5017 9.37529e-007 1.1992e-007
268
root  -72.9335 31.4292 -26.8883 13.3533 58.893 3.35338
RightUpLeg  -40.1881 -31.749 3.6605
RightLeg  48.7249 -0.338438 -0.381431
RightFoot  -11.8185 -0.00900489 0.290565
RightToes  -25.4264 -0.113728 -0.218956
Spine  6.52118 0.861872 1.01055
Spine1  12.082 2.1554 0.345548
HEad  -4.38333 18.0091 -6.59342
LeftShoulder1  0 -2.42657e-020 -4.95415e-022
LeftArm  -22.6609 12.2465 -84.8519
LeftForeArm  41.6238 -59.1116 -17.2004
LeftHand  -0.259155 -5.50285 5.02491
RightShoulder  0 2.42657e-020 1.07489e-018
RightArm  -7.78384 2.73838 69.936
RightForeArm  52.4118 62.1188 19.5408
RightHand  -4.3198 18.3772 -25.8873
LeftUpLeg  -7.63732 8.53581 18.4096
LeftLeg  40.609 4.41035 3.30228
LeftFoot  1.59459 -0.000408904 0.0293741
LeftToes  -19.5601 9.37529e-007 1.1992e-007
